<?xml version="1.0" standalone="no"?>
<!DOCTYPE svg PUBLIC "-//W3C//DTD SVG 20010904//EN"
 "http://www.w3.org/TR/2001/REC-SVG-20010904/DTD/svg10.dtd">
<svg version="1.0" xmlns="http://www.w3.org/2000/svg"
 width="260.000000pt" height="260.000000pt" viewBox="0 0 260.000000 260.000000"
 preserveAspectRatio="xMidYMid meet">
<metadata>
Created by potrace 1.11, written by Peter Selinger 2001-2013
</metadata>
<g transform="translate(0.000000,260.000000) scale(0.100000,-0.100000)"
fill="#000000" stroke="none">
<path d="M0 1300 l0 -1300 1300 0 1300 0 0 1300 0 1300 -1300 0 -1300 0 0
-1300z m1129 586 c77 -28 93 -97 58 -248 l-18 -78 -81 0 c-68 0 -79 2 -74 15
3 9 11 45 17 80 16 83 6 97 -64 93 -40 -2 -54 -8 -68 -28 -21 -28 -202 -800
-197 -840 3 -23 8 -25 58 -28 69 -4 87 9 104 73 l12 50 82 3 81 3 -20 -72
c-25 -91 -40 -119 -83 -157 -46 -40 -91 -52 -204 -52 -136 0 -185 27 -198 111
-4 23 27 178 94 474 55 242 106 453 112 470 25 66 78 114 150 136 40 12 202 9
239 -5z m900 -397 c-83 -222 -173 -465 -200 -539 -28 -74 -60 -161 -71 -192
l-20 -58 -84 0 -84 0 5 43 c3 23 14 150 26 282 11 132 22 264 26 293 4 36 2
52 -6 52 -6 0 -11 -6 -11 -12 0 -7 -53 -158 -117 -335 l-117 -323 -84 0 -84 0
6 48 c6 47 10 100 61 732 15 179 29 344 31 368 l5 42 75 0 75 0 -5 -42 c-3
-24 -13 -108 -21 -188 -21 -202 -54 -524 -61 -590 -7 -60 4 -61 22 -2 6 20 69
199 139 397 70 198 132 375 138 393 10 31 12 32 69 32 37 0 58 -4 58 -11 0
-14 -54 -544 -74 -719 -7 -69 -11 -129 -8 -134 3 -5 38 85 78 200 132 381 212
609 223 636 10 26 14 27 83 30 40 2 74 3 75 2 1 0 -65 -182 -148 -405z"/>
</g>
</svg>
